<mxfile host="app.diagrams.net" modified="2022-12-04T08:05:03.669Z" agent="5.0 (Windows NT 10.0; Win64; x64) AppleWebKit/537.36 (KHTML, like Gecko) Chrome/108.0.0.0 Safari/537.36" version="20.6.0" etag="UKUjaKwJDHKz5U40Kx5G" type="github">
  <diagram id="gGXGk-ehEbuJboOs8Xbj" name="第 1 页">
    <mxGraphModel dx="1422" dy="794" grid="1" gridSize="10" guides="1" tooltips="1" connect="1" arrows="1" fold="1" page="1" pageScale="1" pageWidth="827" pageHeight="1169" math="0" shadow="0">
      <root>
        <mxCell id="0" />
        <mxCell id="1" parent="0" />
        <mxCell id="LxBSH3rdeD30dWvgSmXf-1" value="Admin" style="shape=umlLifeline;perimeter=lifelinePerimeter;container=1;collapsible=0;recursiveResize=0;rounded=0;shadow=0;strokeWidth=1;" vertex="1" parent="1">
          <mxGeometry x="157" y="80" width="100" height="480" as="geometry" />
        </mxCell>
        <mxCell id="LxBSH3rdeD30dWvgSmXf-2" value="" style="points=[];perimeter=orthogonalPerimeter;rounded=0;shadow=0;strokeWidth=1;" vertex="1" parent="LxBSH3rdeD30dWvgSmXf-1">
          <mxGeometry x="45" y="70" width="10" height="410" as="geometry" />
        </mxCell>
        <mxCell id="LxBSH3rdeD30dWvgSmXf-3" value="" style="html=1;points=[];perimeter=orthogonalPerimeter;" vertex="1" parent="LxBSH3rdeD30dWvgSmXf-1">
          <mxGeometry x="50" y="370" width="10" height="40" as="geometry" />
        </mxCell>
        <mxCell id="LxBSH3rdeD30dWvgSmXf-4" value="解析文件" style="edgeStyle=orthogonalEdgeStyle;html=1;align=left;spacingLeft=2;endArrow=block;rounded=0;entryX=1;entryY=0;" edge="1" parent="LxBSH3rdeD30dWvgSmXf-1" target="LxBSH3rdeD30dWvgSmXf-3">
          <mxGeometry relative="1" as="geometry">
            <mxPoint x="55" y="350" as="sourcePoint" />
            <Array as="points">
              <mxPoint x="85" y="350" />
            </Array>
          </mxGeometry>
        </mxCell>
        <mxCell id="LxBSH3rdeD30dWvgSmXf-5" value="" style="html=1;points=[];perimeter=orthogonalPerimeter;" vertex="1" parent="LxBSH3rdeD30dWvgSmXf-1">
          <mxGeometry x="50" y="260" width="10" height="40" as="geometry" />
        </mxCell>
        <mxCell id="LxBSH3rdeD30dWvgSmXf-6" value="接收处理" style="edgeStyle=orthogonalEdgeStyle;html=1;align=left;spacingLeft=2;endArrow=block;rounded=0;entryX=1;entryY=0;" edge="1" parent="LxBSH3rdeD30dWvgSmXf-1" target="LxBSH3rdeD30dWvgSmXf-5">
          <mxGeometry relative="1" as="geometry">
            <mxPoint x="55" y="240" as="sourcePoint" />
            <Array as="points">
              <mxPoint x="85" y="240" />
            </Array>
          </mxGeometry>
        </mxCell>
        <mxCell id="LxBSH3rdeD30dWvgSmXf-7" value="saturn容器" style="shape=umlLifeline;perimeter=lifelinePerimeter;container=1;collapsible=0;recursiveResize=0;rounded=0;shadow=0;strokeWidth=1;" vertex="1" parent="1">
          <mxGeometry x="337" y="80" width="100" height="480" as="geometry" />
        </mxCell>
        <mxCell id="LxBSH3rdeD30dWvgSmXf-8" value="" style="points=[];perimeter=orthogonalPerimeter;rounded=0;shadow=0;strokeWidth=1;" vertex="1" parent="LxBSH3rdeD30dWvgSmXf-7">
          <mxGeometry x="45" y="80" width="10" height="400" as="geometry" />
        </mxCell>
        <mxCell id="LxBSH3rdeD30dWvgSmXf-9" value="" style="html=1;points=[];perimeter=orthogonalPerimeter;" vertex="1" parent="LxBSH3rdeD30dWvgSmXf-7">
          <mxGeometry x="50" y="230" width="10" height="90" as="geometry" />
        </mxCell>
        <mxCell id="LxBSH3rdeD30dWvgSmXf-10" value="开始拦截流量&lt;br&gt;并存储到本地文件" style="edgeStyle=orthogonalEdgeStyle;html=1;align=left;spacingLeft=2;endArrow=block;rounded=0;entryX=1;entryY=0;" edge="1" parent="LxBSH3rdeD30dWvgSmXf-7" target="LxBSH3rdeD30dWvgSmXf-9">
          <mxGeometry relative="1" as="geometry">
            <mxPoint x="55" y="160" as="sourcePoint" />
            <Array as="points">
              <mxPoint x="55" y="170" />
              <mxPoint x="85" y="170" />
              <mxPoint x="85" y="220" />
              <mxPoint x="60" y="220" />
            </Array>
          </mxGeometry>
        </mxCell>
        <mxCell id="LxBSH3rdeD30dWvgSmXf-11" value="发送注入命令，但不启动容器" style="verticalAlign=bottom;endArrow=block;entryX=0;entryY=0;shadow=0;strokeWidth=1;" edge="1" parent="1">
          <mxGeometry relative="1" as="geometry">
            <mxPoint x="212" y="168.00000000000034" as="sourcePoint" />
            <mxPoint x="382" y="168.00000000000034" as="targetPoint" />
          </mxGeometry>
        </mxCell>
        <mxCell id="LxBSH3rdeD30dWvgSmXf-12" value="DB" style="shape=umlLifeline;perimeter=lifelinePerimeter;container=1;collapsible=0;recursiveResize=0;rounded=0;shadow=0;strokeWidth=1;" vertex="1" parent="1">
          <mxGeometry x="517" y="80" width="100" height="480" as="geometry" />
        </mxCell>
        <mxCell id="LxBSH3rdeD30dWvgSmXf-13" value="" style="points=[];perimeter=orthogonalPerimeter;rounded=0;shadow=0;strokeWidth=1;" vertex="1" parent="LxBSH3rdeD30dWvgSmXf-12">
          <mxGeometry x="45" y="80" width="10" height="400" as="geometry" />
        </mxCell>
        <mxCell id="LxBSH3rdeD30dWvgSmXf-14" value="返回成功" style="verticalAlign=bottom;endArrow=open;dashed=1;endSize=8;exitX=0;exitY=0.95;shadow=0;strokeWidth=1;" edge="1" parent="1">
          <mxGeometry relative="1" as="geometry">
            <mxPoint x="207" y="185.99999999999977" as="targetPoint" />
            <mxPoint x="377" y="185.99999999999977" as="sourcePoint" />
          </mxGeometry>
        </mxCell>
        <mxCell id="LxBSH3rdeD30dWvgSmXf-15" value="发送启动拦截命令" style="verticalAlign=bottom;endArrow=block;entryX=0;entryY=0;shadow=0;strokeWidth=1;" edge="1" parent="1">
          <mxGeometry relative="1" as="geometry">
            <mxPoint x="214" y="225.0000000000001" as="sourcePoint" />
            <mxPoint x="384" y="225.0000000000001" as="targetPoint" />
          </mxGeometry>
        </mxCell>
        <mxCell id="LxBSH3rdeD30dWvgSmXf-16" value="返回成功" style="verticalAlign=bottom;endArrow=open;dashed=1;endSize=8;exitX=0;exitY=0.95;shadow=0;strokeWidth=1;" edge="1" parent="1">
          <mxGeometry relative="1" as="geometry">
            <mxPoint x="207" y="249.99999999999977" as="targetPoint" />
            <mxPoint x="377" y="249.99999999999977" as="sourcePoint" />
          </mxGeometry>
        </mxCell>
        <mxCell id="LxBSH3rdeD30dWvgSmXf-17" value="发送下载命令" style="verticalAlign=bottom;endArrow=block;entryX=0;entryY=0;shadow=0;strokeWidth=1;" edge="1" parent="1">
          <mxGeometry relative="1" as="geometry">
            <mxPoint x="212" y="400" as="sourcePoint" />
            <mxPoint x="382" y="400" as="targetPoint" />
          </mxGeometry>
        </mxCell>
        <mxCell id="LxBSH3rdeD30dWvgSmXf-18" value="下载文件" style="verticalAlign=bottom;endArrow=open;dashed=1;endSize=8;exitX=0;exitY=0.95;shadow=0;strokeWidth=1;" edge="1" parent="1">
          <mxGeometry relative="1" as="geometry">
            <mxPoint x="207" y="429.9999999999998" as="targetPoint" />
            <mxPoint x="377" y="429.9999999999998" as="sourcePoint" />
          </mxGeometry>
        </mxCell>
        <mxCell id="LxBSH3rdeD30dWvgSmXf-19" value="存储" style="verticalAlign=bottom;endArrow=block;shadow=0;strokeWidth=1;exitX=1;exitY=0.75;exitDx=0;exitDy=0;exitPerimeter=0;" edge="1" parent="1" source="LxBSH3rdeD30dWvgSmXf-3">
          <mxGeometry relative="1" as="geometry">
            <mxPoint x="257" y="480" as="sourcePoint" />
            <mxPoint x="557" y="480" as="targetPoint" />
          </mxGeometry>
        </mxCell>
        <mxCell id="LxBSH3rdeD30dWvgSmXf-20" value="http上传流量信息" style="verticalAlign=bottom;endArrow=open;dashed=1;endSize=8;exitX=0;exitY=0.95;shadow=0;strokeWidth=1;" edge="1" parent="1">
          <mxGeometry relative="1" as="geometry">
            <mxPoint x="210" y="319.4999999999998" as="targetPoint" />
            <mxPoint x="380" y="319.4999999999998" as="sourcePoint" />
          </mxGeometry>
        </mxCell>
        <mxCell id="LxBSH3rdeD30dWvgSmXf-21" value="存储" style="verticalAlign=bottom;endArrow=block;shadow=0;strokeWidth=1;exitX=1;exitY=0.75;exitDx=0;exitDy=0;exitPerimeter=0;" edge="1" parent="1">
          <mxGeometry relative="1" as="geometry">
            <mxPoint x="217" y="360" as="sourcePoint" />
            <mxPoint x="557" y="360" as="targetPoint" />
          </mxGeometry>
        </mxCell>
      </root>
    </mxGraphModel>
  </diagram>
</mxfile>
